<svg id="Layer_1" data-name="Layer 1" xmlns="http://www.w3.org/2000/svg" viewBox="0 0 150 150"><defs><style>.cls-1{fill: currentColor;}</style></defs><title>Viz Themes</title><path class="cls-1" d="M138.67,134.3H13.29V13.85a2.44,2.44,0,0,0-4.87,0V136.73a2.43,2.43,0,0,0,2.44,2.43H138.67a2.43,2.43,0,1,0,0-4.86Z"/><path class="cls-1" d="M31.6,101.73l-6.05,19a2.5,2.5,0,1,0,4.76,1.52l4.89-15.39,8.14,11.71a2.49,2.49,0,0,0,2,1.08h.09a2.52,2.52,0,0,0,1.94-.92l16-19.68,15.56,10.63a2.51,2.51,0,0,0,3.53-.74L98.38,83.52l15.26,12.87a2.5,2.5,0,1,0,3.22-3.82L99.4,77.84a2.51,2.51,0,0,0-2-.56,2.48,2.48,0,0,0-1.73,1.14L79.58,104.13,64.27,93.67a2.51,2.51,0,0,0-3.35.49L45.55,113l-8.44-12.15,9.73-30.63L61.09,84.51a2.5,2.5,0,0,0,2.28.68,2.54,2.54,0,0,0,1.82-1.54L80.88,43.22,95.69,66a2.51,2.51,0,0,0,2.24,1.13A2.48,2.48,0,0,0,100,65.79l17.47-35.23A2.5,2.5,0,0,0,113,28.34L97.49,59.63,82.42,36.4a2.5,2.5,0,0,0-4.43.45L61.91,78.26,47.47,63.82a2.5,2.5,0,0,0-4.15,1L33.51,95.71,30,90.63a2.5,2.5,0,0,0-4.1,2.86Z"/><path class="cls-1" d="M119.8,23.61a2.93,2.93,0,1,0-2.93-2.92A2.92,2.92,0,0,0,119.8,23.61Z"/><path class="cls-1" d="M119.8,99.66a2.93,2.93,0,1,0,2.92-2.92A2.93,2.93,0,0,0,119.8,99.66Z"/></svg>
